<svg width="149" height="163" viewBox="0 0 149 163" fill="none" xmlns="http://www.w3.org/2000/svg">
<path d="M74.0777 97.877C73.9468 98.0243 73.8409 98.1547 73.7574 98.2709M73.7574 98.2709C73.0265 99.2876 74.0024 99.22 74.8469 99.8768C75.1782 100.135 75.629 99.1207 75.2699 98.7615C74.7795 98.2711 74.0999 98.8586 73.7574 98.2709ZM73.7574 98.2709C73.7486 98.2558 73.74 98.2399 73.7316 98.2231M75.5786 107.539C74.6872 107.65 74.4487 110.745 74.4297 111.445C74.357 114.137 75.7856 116.809 77.6719 118.695C79.87 120.893 83.2853 121.376 86.0965 120.176C89.8791 118.561 90.9725 115.848 90.9725 111.904M74.2 107.309C73.5138 108.081 73.0924 110.177 72.8214 111.19C71.9585 114.414 71.6104 118.859 69.1452 121.325C68.3049 122.165 66.1095 122.081 65.0606 121.784C62.6391 121.098 60.6857 119.332 59.4953 117.189M32.5628 68.0175C31.7507 68.119 31.0715 70.6598 31.0715 71.2982C31.0715 72.5537 31.3698 73.8568 31.3698 75.0262C31.3698 76.675 34.1821 79.2159 35.6115 77.6276C37.0858 75.9895 37.0364 72.9998 37.0364 70.8508C37.0364 69.336 34.1039 65.1836 33.1593 68.0175M33.2981 71.2171C33.2889 71.2995 33.2743 71.3923 33.2561 71.4897M33.2561 71.4897C33.1168 72.2352 32.7696 73.2444 33.0894 71.8052C33.1221 71.658 33.1474 71.5295 33.1662 71.4179M33.2561 71.4897C33.2258 71.4658 33.1958 71.4419 33.1662 71.4179M33.2561 71.4897C33.325 71.5438 33.3955 71.5973 33.4665 71.6505M33.1662 71.4179C33.1858 71.302 33.1984 71.2043 33.2054 71.123M33.1662 71.4179C33.159 71.4121 33.1518 71.4062 33.1447 71.4004M33.2054 71.123C33.2558 70.531 33.0035 70.8013 32.9037 71.1895M33.2054 71.123C33.1845 71.221 33.1642 71.3146 33.1447 71.4004M33.2054 71.123C33.418 70.1213 33.6767 68.6645 33.5067 70.5343C33.4736 70.8985 33.4631 71.2739 33.4665 71.6505M32.9037 71.1895C32.843 71.4261 32.8389 71.7064 32.9946 71.8621C33.0229 71.8905 33.0787 71.6907 33.1447 71.4004M32.9037 71.1895C32.4896 70.797 32.2607 70.3798 32.6152 69.9367C33.0185 69.4326 33.6088 68.9977 34.2371 68.9977C35.0084 68.9977 35.0406 69.9322 35.1855 70.4394C35.2738 70.7485 35.5175 70.7274 35.5175 71.1318C35.5175 71.4417 35.4636 71.8103 35.5554 72.1087C35.7895 72.8694 35.5175 73.3836 35.5175 74.1195C35.5175 74.9358 35.251 75.4533 34.8725 76.1681C34.6296 76.6271 34.8422 75.9813 34.8251 75.9215C34.7666 75.7167 34.1394 76.1681 33.981 76.1681C33.752 76.1681 33.9051 75.4852 33.9051 75.4852C33.9051 75.4852 33.8728 75.4901 33.8216 75.4949M32.9037 71.1895C32.9788 71.2606 33.0599 71.3309 33.1447 71.4004M33.4665 71.6505C33.4768 72.792 33.6146 73.9445 33.6366 74.8331M33.4665 71.6505C33.994 72.0448 34.55 72.412 34.6639 72.7537M33.6366 74.8331C33.6385 74.9102 33.6395 74.9854 33.6395 75.0584C33.6395 75.2256 33.7226 75.4259 33.7765 75.4986M33.6366 74.8331C33.6815 74.9808 33.7268 75.1286 33.7723 75.2766C33.807 75.3893 33.821 75.4586 33.8216 75.4949M33.6366 74.8331C33.5242 74.4633 33.414 74.0936 33.3076 73.7211C33.2996 73.6933 33.2473 73.7736 33.1854 73.8916M33.7765 75.4986C33.8029 75.5342 33.8223 75.5393 33.8216 75.4949M33.7765 75.4986C33.6093 75.5109 33.3255 75.5127 33.2127 75.3999C32.878 75.0651 32.8943 74.5705 32.9946 74.1195C33.0851 73.7121 33.4668 72.9746 33.2127 73.7875C33.2062 73.8083 33.1968 73.8448 33.1854 73.8916M33.7765 75.4986C33.7927 75.4975 33.8078 75.4962 33.8216 75.4949M33.1854 73.8916C33.0859 74.0812 32.9615 74.3682 32.9566 74.4609C32.9257 75.0481 33.1052 74.2193 33.1854 73.8916ZM101.3 68.0175C100.487 68.119 99.8083 70.6598 99.8083 71.2982C99.8083 72.5537 100.107 73.8568 100.107 75.0262C100.107 76.675 102.919 79.2159 104.348 77.6276C105.823 75.9895 105.773 72.9998 105.773 70.8508C105.773 69.336 102.841 65.1836 101.896 68.0175M102.035 71.2171C102.026 71.2995 102.011 71.3923 101.993 71.4897M101.993 71.4897C101.854 72.2352 101.506 73.2444 101.826 71.8052C101.859 71.658 101.884 71.5295 101.903 71.4179M101.993 71.4897C101.963 71.4658 101.933 71.4419 101.903 71.4179M101.993 71.4897C102.062 71.5438 102.132 71.5973 102.203 71.6505M101.903 71.4179C101.923 71.302 101.935 71.2043 101.942 71.123M101.903 71.4179C101.896 71.4121 101.889 71.4062 101.881 71.4004M101.942 71.123C101.993 70.531 101.74 70.8013 101.641 71.1895M101.942 71.123C101.921 71.221 101.901 71.3146 101.881 71.4004M101.942 71.123C102.155 70.1213 102.414 68.6645 102.244 70.5343C102.21 70.8985 102.2 71.2739 102.203 71.6505M101.641 71.1895C101.58 71.4261 101.576 71.7064 101.731 71.8621C101.76 71.8905 101.816 71.6907 101.881 71.4004M101.641 71.1895C101.226 70.797 100.998 70.3798 101.352 69.9367C101.755 69.4326 102.346 68.9977 102.974 68.9977C103.745 68.9977 103.777 69.9322 103.922 70.4394C104.011 70.7485 104.254 70.7274 104.254 71.1318C104.254 71.4417 104.2 71.8103 104.292 72.1087C104.526 72.8694 104.254 73.3836 104.254 74.1195C104.254 74.9358 103.988 75.4533 103.609 76.1681C103.366 76.6271 103.579 75.9813 103.562 75.9215C103.503 75.7167 102.876 76.1681 102.718 76.1681C102.489 76.1681 102.642 75.4852 102.642 75.4852C102.642 75.4852 102.61 75.4901 102.558 75.4949M101.641 71.1895C101.716 71.2606 101.797 71.3309 101.881 71.4004M102.203 71.6505C102.214 72.792 102.351 73.9445 102.373 74.8331M102.203 71.6505C102.731 72.0448 103.287 72.412 103.401 72.7537M102.373 74.8331C102.375 74.9102 102.376 74.9854 102.376 75.0584C102.376 75.2256 102.459 75.4259 102.513 75.4986M102.373 74.8331C102.418 74.9808 102.464 75.1286 102.509 75.2766C102.544 75.3893 102.558 75.4586 102.558 75.4949M102.373 74.8331C102.261 74.4633 102.151 74.0936 102.044 73.7211C102.036 73.6933 101.984 73.7736 101.922 73.8916M102.513 75.4986C102.54 75.5342 102.559 75.5393 102.558 75.4949M102.513 75.4986C102.346 75.5109 102.062 75.5127 101.949 75.3999C101.615 75.0651 101.631 74.5705 101.731 74.1195C101.822 73.7121 102.204 72.9746 101.949 73.7875C101.943 73.8083 101.934 73.8448 101.922 73.8916M102.513 75.4986C102.529 75.4975 102.545 75.4962 102.558 75.4949M101.922 73.8916C101.823 74.0812 101.698 74.3682 101.693 74.4609C101.663 75.0481 101.842 74.2193 101.922 73.8916ZM128.946 105.198C129.885 105.198 130.847 104.344 131.783 104.077C133.141 103.689 134.385 103.03 135.774 102.758C137.478 102.423 139.763 101.105 141.529 101.784C143.796 102.656 146.212 103.514 147.351 105.792M129.54 114.401C131.463 114.187 133.293 113.51 135.328 113.51C136.698 113.51 137.366 114.158 138.445 114.698M128.055 124.197C128.165 123.318 130.265 123.073 130.859 122.993C133.478 122.644 135.949 122.416 138.594 122.416C140.708 122.416 145.998 123.403 146.757 125.682M20.2958 100.745C14.7328 100.745 9.41217 98.0738 3.82015 98.0738C2.53399 98.0738 1.51467 99.4193 1 100.449M14.9523 109.948C12.5359 109.948 9.69286 109.651 7.10209 109.651C6.48114 109.651 4.8739 111.7 4.5623 112.323M18.2178 118.854C16.6775 120.223 13.0729 119.691 11.1592 120.107C10.192 120.317 7.58504 120.864 6.93717 121.674C6.02503 122.814 6.04651 125.533 7.53089 126.275M22.1857 21.0079C22.8224 21.0875 23.6737 24.3274 23.8096 24.9389C24.0892 26.1971 24.5494 27.3608 24.8176 28.5675C25.063 29.6718 26.0159 31.0497 26.0159 32.0953C26.0159 32.7034 26.6562 33.3048 25.6127 33.3048C24.5982 33.3048 22.7342 33.683 21.7825 33.2601C20.9229 32.878 19.1984 32.9017 18.2547 32.9017C17.4478 32.9017 17.2475 32.9206 17.65 32.1961C18.0317 31.5089 18.7013 30.9782 19.0499 30.281C20.2819 27.8171 20.6706 25.454 21.3905 22.9342C21.6175 22.1398 21.4788 22.4088 21.7377 23.0238C22.023 23.7013 21.7825 24.9026 21.7825 25.6445C21.7825 26.2916 21.9841 26.8331 21.9841 27.4588C21.9841 27.9946 22.3884 28.5147 22.1409 29.0715C21.9391 29.5256 21.5511 29.9583 21.0882 30.0906C20.771 30.1812 20.5648 30.852 20.2706 31.0874C19.9091 31.3765 21.4158 31.0922 21.1778 31.3898C21.1429 31.4333 21.0981 31.4674 21.049 31.4937M21.049 31.4937C20.7396 31.6594 20.2607 31.517 21.049 31.4937ZM21.049 31.4937C21.116 31.4917 21.1923 31.4906 21.2785 31.4906C22.2666 31.4906 24.3003 31.763 23.552 30.0794C23.1093 29.0834 22.7905 27.9946 22.7905 26.854C22.7905 25.8587 21.9841 24.8843 21.9841 23.8302C21.9841 23.2876 22.0137 22.7622 21.6257 22.3743C21.1244 21.8729 21.3124 21.9482 21.5809 21.4111M21.9841 29.0715C21.8957 28.3646 20.3289 30.7193 20.1698 30.9978C20.0541 31.2003 19.6036 31.4905 19.7666 31.4905C20.2592 31.4905 20.7801 31.5443 21.2673 31.4793C22.0531 31.3746 22.9749 31.061 23.5968 30.5946C23.684 30.5292 23.8537 31.696 24.0448 31.8489C24.2346 32.0008 24.6091 31.7371 24.4032 31.9945C24.2512 32.1845 23.8189 32.0953 23.5968 32.0953C22.3857 32.0953 21.0457 31.8937 19.7666 31.8937M113.909 35.3208C114.042 34.1237 114.999 32.7209 115.432 31.5802C115.686 30.91 115.941 30.2578 116.126 29.5643C116.177 29.3726 116.259 29.2065 116.352 29.0493M116.352 29.0493C116.502 28.7957 116.682 28.5654 116.813 28.2891M116.352 29.0493C116.437 28.8031 116.612 28.5447 116.813 28.2891M116.352 29.0493C116.337 29.0906 116.325 29.1317 116.316 29.1723C116.265 29.4031 115.518 32.8121 115.723 32.8121C116.116 32.8121 117.247 29.6183 117.537 29.1835C117.795 28.7967 118.158 28.4213 118.332 27.9852C118.561 27.4136 118.227 29.2202 118.052 29.8107C117.806 30.6448 117.366 31.4221 117.089 32.2521C116.873 32.9016 117.047 32.3893 116.91 32.2185C116.774 32.049 115.725 32.8871 115.611 33.0585C115.376 33.4102 116.057 33.3049 116.238 33.3049C116.407 33.3049 117.06 33.1966 117.123 33.4169C117.175 33.6013 116.844 34.1316 116.977 33.9096C117.165 33.5975 117.851 33.561 118.544 33.5948M116.813 28.2891C116.84 28.2311 116.865 28.171 116.888 28.1084C117.485 26.4353 118.402 24.6527 119.251 23.1246C119.383 22.886 119.553 22.6184 119.553 22.3407C119.553 22.009 119.745 22.9835 119.755 23.315C119.787 24.4343 119.99 25.557 120.147 26.6524C120.349 28.0704 120.964 29.6772 120.964 31.0874C120.964 32.1994 121.301 33.382 121.367 34.5144C121.384 34.7945 121.958 35.7239 121.267 35.7239C120.287 35.7239 118.943 35.2924 117.832 34.9442M116.813 28.2891C117.119 27.8988 117.487 27.5149 117.694 27.19C117.933 26.814 119.15 24.9989 119.15 26.1485C119.15 27.3055 118.747 28.1867 118.747 29.2731C118.747 30.7099 118.545 32.0675 118.545 33.5065C118.545 33.5365 118.545 33.5659 118.544 33.5948M117.832 34.9442C117.552 34.8563 117.286 34.7738 117.044 34.7048C116.513 34.5529 116.112 34.4086 115.521 34.6712C114.813 34.9859 115.756 35.1192 116.227 35.1192C116.882 35.1192 117.432 35.1136 117.832 34.9442ZM117.832 34.9442C118.269 34.759 118.526 34.3781 118.544 33.5948M118.544 33.5948C119.15 33.6245 119.761 33.708 120.046 33.708C120.843 33.708 119.758 31.0946 119.553 30.6842M65.2784 42.7351C64.6543 42.8131 64.3379 44.2618 64.0818 44.7028C63.3849 45.9031 63.2356 47.828 63.1378 49.1967C63.0248 50.7795 62.9468 52.5832 63.3772 54.0894C63.7899 55.5341 65.5924 54.018 66.116 53.6107C66.7458 53.1209 66.6392 52.495 66.9536 51.8291C67.4638 50.7487 67.6325 49.6907 68.0305 48.5851C68.4988 47.2842 68.5065 44.7028 69.3083 43.5001C70.3083 42 68.537 42.8954 67.1929 42.9744C65.9268 43.0489 66.1434 45.81 65.9432 46.511C65.926 46.571 65.9098 46.6504 65.8946 46.7404M65.8946 46.7404C65.8095 47.2449 65.757 48.0841 65.757 47.7342C65.757 47.634 65.7477 47.3058 65.7307 46.9267M65.8946 46.7404C66.7684 45.7473 68.2252 44.1031 67.2461 45.9526C67.0173 46.3847 66.8829 46.7748 66.5813 47.1625C66.0874 47.7976 66.2006 48.6105 65.9432 49.3828C65.7319 50.0166 65.7341 50.5271 65.398 51.1245C65.266 51.3593 64.5604 53.0524 64.5604 52.4274C64.5604 51.8958 64.5675 52.7077 64.3743 52.68C64.2679 52.6649 64.7615 51.0975 64.7998 50.9782C65.1142 49.9979 65.0709 49.3951 64.6801 50.6459C63.7058 53.7636 64.7699 49.1425 63.8425 50.7655C63.577 51.2301 63.7334 50.3936 63.8088 49.8506M65.8946 46.7404C65.8371 46.8057 65.7822 46.8682 65.7307 46.9267M65.7307 46.9267C65.6995 46.2314 65.6427 45.3649 65.5709 45.4208C64.895 45.9465 64.5573 47.62 64.3743 48.3723C64.1121 49.4501 64.3211 47.8105 64.3211 47.4018C64.3211 46.8995 63.8425 49.063 63.8425 49.5158C63.8425 49.5686 63.8352 49.6457 63.8239 49.737M65.7307 46.9267C65.5961 47.0793 65.4846 47.2048 65.4113 47.2821C64.9387 47.781 64.0984 49.2072 63.8239 49.737M63.8239 49.737C63.8194 49.7729 63.8144 49.811 63.8088 49.8506M63.8239 49.737C63.7191 49.9393 63.6968 50.0109 63.8088 49.8506M63.8088 49.8506C63.8225 49.8311 63.8381 49.8082 63.8558 49.7817C64.0256 49.5269 64.7603 49.1573 64.7998 49.1967M66.9536 43.9316H68.1502M78.3083 43C78.3083 43.4745 77.4394 44.0309 77.1077 44.3802C76.7204 44.7881 76.3604 46.0159 76.1734 46.5409C75.702 47.8647 74.9602 49.83 74.8819 51.2223C74.8409 51.9524 74.5235 54.0003 75.6238 54.0003C75.7132 54.0003 75.8015 53.9978 75.8888 53.993M75.8888 53.993C75.9069 53.992 75.9249 53.9909 75.9429 53.9897M75.8888 53.993C75.6025 53.8744 77.2763 50.8339 77.9595 49.7304C78.0722 49.5484 78.1862 49.3666 78.3001 49.1845M75.8888 53.993C75.9024 53.9986 75.9203 53.9977 75.9429 53.9897M75.9429 53.9897C77.9178 53.8584 79.4008 52.5216 80.6799 51.1066C82.4648 49.1319 81.2957 47.6117 82.8083 45C84.3209 42.3883 82.0368 42.4527 81.8083 42.5003C80.822 42.7054 80.2176 43.2162 79.4812 43.7421M75.9429 53.9897C75.9943 53.9716 76.0699 53.9171 76.1734 53.8202C77.7983 52.2992 79.3355 50.6556 80.2127 48.6244C80.5183 47.9169 80.9557 46.7758 79.7181 47.1068C79.6354 47.1289 79.5528 47.1557 79.4706 47.1866M79.4812 43.7421C79.2844 43.8827 79.0781 44.0244 78.8526 44.1616C77.9037 44.739 77.2196 45.7542 76.7505 46.6952C76.6132 46.9705 76.0513 48.3962 76.7367 47.9685C78.0165 47.1698 78.8551 45.0858 79.4433 43.8272C79.4571 43.7977 79.4698 43.7693 79.4812 43.7421ZM79.4812 43.7421C79.672 43.2885 79.5376 43.1603 79.0861 43.5829C78.0341 44.5677 77.1405 45.791 76.4207 47.0039C76.1963 47.382 74.1774 51.6853 75.3765 51.6853C76.3359 51.6853 77.5202 50.2758 78.3001 49.1845M78.3001 49.1845C78.5597 48.8213 78.7744 48.4933 78.9213 48.2643C79.0682 48.035 79.3197 47.5127 79.4706 47.1866M78.3001 49.1845C78.7078 48.5326 79.1143 47.8766 79.4552 47.1925M79.4706 47.1866C79.5838 46.9419 79.6403 46.8077 79.5533 46.991C79.5212 47.0585 79.4885 47.1256 79.4552 47.1925M79.4706 47.1866C79.4655 47.1886 79.4603 47.1905 79.4552 47.1925M79.4552 47.1925C79.1061 47.3261 78.7644 47.5338 78.448 47.7749M78.448 47.7749C78.0435 48.0832 77.6804 48.4461 77.3962 48.7787C77.3871 48.7894 76.6613 50.0095 76.9153 49.9619C77.4325 49.8651 78.0172 48.8176 78.448 47.7749ZM78.448 47.7749C78.6889 47.1921 78.8816 46.6108 78.9878 46.1977M78.9878 46.1977C79.0318 46.0262 79.061 45.8836 79.0724 45.7821C79.1729 44.8879 79.037 45.678 78.9878 46.1977ZM78.9878 46.1977C78.9683 46.4033 78.9623 46.5666 78.99 46.5666C79.3004 46.5666 79.7537 46.3848 80.2067 46.1198M80.2067 46.1198C80.6028 45.8881 80.9987 45.5928 81.2986 45.2998M80.2067 46.1198C80.1842 46.0341 80.1655 45.9445 80.15 45.857M80.2067 46.1198C80.2611 46.3264 80.3378 46.5111 80.4463 46.5923C80.7164 46.7946 80.7444 46.9376 80.7204 47.0152M81.2986 45.2998C81.5479 45.0563 81.7309 44.8143 81.7927 44.6117C82.269 43.0515 81.3119 47.6159 81.3119 45.5506C81.3119 45.4494 81.3073 45.3665 81.2986 45.2998ZM81.2986 45.2998C81.1868 44.4362 80.3982 46.273 80.15 45.857M80.15 45.857C80.103 45.7782 80.0753 45.6187 80.0753 45.3448C80.0753 45.0972 80.0789 45.4555 80.15 45.857ZM80.7204 47.0152C80.6929 47.1044 80.5968 47.1074 80.7204 47.0152ZM80.7204 47.0152C80.7779 46.9723 80.883 46.9088 81.0646 46.8238M78.301 44.6774C78.9418 44.6062 79.2964 44.1788 80.0458 44.1788M80.0458 43.6803C80.3717 43.6803 80.4126 43.6946 80.5444 43.431M8.80829 39.7401C13.7072 24.0516 25.3083 -1.75991 25.8083 1.24009C26.3083 4.24009 30.8083 37 35.3083 39.7401C39.8083 42.4802 101.308 42.9802 103.808 39.7401C106.308 36.5 118.808 1.74009 119.808 3.24009C120.808 4.74009 130.308 38.5 130.308 39.7401C130.308 40.9802 150.808 121.5 124.808 145C98.8083 168.5 47.2522 166.733 22.3083 142.5C-0.159929 120.672 0.308295 75.1601 8.80829 39.7401Z" stroke="black" stroke-width="2" stroke-linecap="round"/>
</svg>
